<?xml version="1.0" encoding="UTF-8" standalone="no"?>
<!-- Created with Inkscape (http://www.inkscape.org/) -->

<svg
   width="120"
   height="120"
   viewBox="0 0 120 120"
   version="1.1"
   id="svg5"
   inkscape:export-filename="Nothing.png"
   inkscape:export-xdpi="96"
   inkscape:export-ydpi="96"
   inkscape:version="1.2.2 (732a01da63, 2022-12-09)"
   sodipodi:docname="empty-book.svg"
   xmlns:inkscape="http://www.inkscape.org/namespaces/inkscape"
   xmlns:sodipodi="http://sodipodi.sourceforge.net/DTD/sodipodi-0.dtd"
   xmlns="http://www.w3.org/2000/svg"
   xmlns:svg="http://www.w3.org/2000/svg">
  <sodipodi:namedview
     id="namedview7"
     pagecolor="#505050"
     bordercolor="#ffffff"
     borderopacity="1"
     inkscape:showpageshadow="0"
     inkscape:pageopacity="0"
     inkscape:pagecheckerboard="1"
     inkscape:deskcolor="#505050"
     inkscape:document-units="px"
     showgrid="false"
     inkscape:zoom="4"
     inkscape:cx="29.625"
     inkscape:cy="60.75"
     inkscape:window-width="1920"
     inkscape:window-height="1027"
     inkscape:window-x="-8"
     inkscape:window-y="-8"
     inkscape:window-maximized="1"
     inkscape:current-layer="layer1">
    <sodipodi:guide
       position="43.663844,104.44365"
       orientation="0,120"
       id="guide138"
       inkscape:locked="false" />
    <sodipodi:guide
       position="110.13188,96.135146"
       orientation="120,0"
       id="guide140"
       inkscape:locked="false" />
    <sodipodi:guide
       position="73.715882,20.474721"
       orientation="0,-120"
       id="guide142"
       inkscape:locked="false" />
    <sodipodi:guide
       position="9.7227182,95.95837"
       orientation="-120,0"
       id="guide144"
       inkscape:locked="false" />
    <inkscape:grid
       type="xygrid"
       id="grid1256" />
  </sodipodi:namedview>
  <defs
     id="defs2" />
  <g
     inkscape:label="Layer 1"
     inkscape:groupmode="layer"
     id="layer1"
     style="display:inline">
    <path
       style="fill:#ff4406;fill-opacity:1;stroke-width:1.4067"
       d="m 92.321318,24.81159 c 0,0 -52.572274,-0.248671 -66.382827,27.93612 0,25.778774 0.310837,56.41986 0.310837,56.41986 0,0 23.369728,-22.467638 66.03223,-15.91531 -4.793936,-43.154489 0.03969,-68.44067 0.03969,-68.44067 z"
       id="path1258-2-0"
       sodipodi:nodetypes="ccccc" />
    <path
       style="fill:#ffffff;fill-opacity:1;stroke-width:1.4067"
       d="m 83.166987,15.879067 c 0,0 -43.12274,0 -56.933293,28.184792 0,25.778774 0.06215,63.942191 0.06215,63.942191 0,0 17.662012,-26.898464 56.921056,-22.646125 -4.793936,-43.154491 0.782575,-69.147857 0.782575,-69.147857 z"
       id="path1258-2"
       sodipodi:nodetypes="cccccc" />
    <path
       style="fill:#ff4406;fill-opacity:1;stroke-width:1.4067"
       d="m 76.775875,10.584597 c 0,0 -37.502367,5.402542 -51.31292,33.587333 0,25.778775 0.781772,64.42575 0.781772,64.42575 0,0 2.648607,-27.176986 49.314052,-34.752694 -4.793935,-43.154489 1.21703,-63.260389 1.21703,-63.260389 z"
       id="path1258-2-0-0"
       sodipodi:nodetypes="cccccc" />
  </g>
  <g
     inkscape:groupmode="layer"
     id="layer2"
     inkscape:label="Layer 2" />
</svg>
