<?xml version="1.0" encoding="UTF-8" standalone="no"?>
<!-- Created with Inkscape (http://www.inkscape.org/) -->

<svg
   width="120"
   height="120"
   viewBox="0 0 120 120"
   version="1.1"
   id="svg5"
   inkscape:export-filename="bitmap.png"
   inkscape:export-xdpi="96"
   inkscape:export-ydpi="96"
   inkscape:version="1.2.2 (732a01da63, 2022-12-09)"
   sodipodi:docname="drawing.svg"
   xmlns:inkscape="http://www.inkscape.org/namespaces/inkscape"
   xmlns:sodipodi="http://sodipodi.sourceforge.net/DTD/sodipodi-0.dtd"
   xmlns="http://www.w3.org/2000/svg"
   xmlns:svg="http://www.w3.org/2000/svg">
  <sodipodi:namedview
     id="namedview7"
     pagecolor="#505050"
     bordercolor="#ffffff"
     borderopacity="1"
     inkscape:showpageshadow="0"
     inkscape:pageopacity="0"
     inkscape:pagecheckerboard="1"
     inkscape:deskcolor="#505050"
     inkscape:document-units="px"
     showgrid="false"
     inkscape:zoom="4"
     inkscape:cx="33.875"
     inkscape:cy="47.25"
     inkscape:window-width="1920"
     inkscape:window-height="1027"
     inkscape:window-x="-8"
     inkscape:window-y="-8"
     inkscape:window-maximized="1"
     inkscape:current-layer="layer1">
    <sodipodi:guide
       position="28.461048,100.37779"
       orientation="0,120"
       id="guide138"
       inkscape:locked="false" />
    <sodipodi:guide
       position="110.13188,96.135146"
       orientation="120,0"
       id="guide140"
       inkscape:locked="false" />
    <sodipodi:guide
       position="73.715882,20.474721"
       orientation="0,-120"
       id="guide142"
       inkscape:locked="false" />
    <sodipodi:guide
       position="9.7227182,95.95837"
       orientation="-120,0"
       id="guide144"
       inkscape:locked="false" />
    <inkscape:grid
       type="xygrid"
       id="grid1256" />
  </sodipodi:namedview>
  <defs
     id="defs2" />
  <g
     inkscape:label="Layer 1"
     inkscape:groupmode="layer"
     id="layer1">
    <path
       style="fill:#ff4406;fill-opacity:1;stroke-width:1.05608"
       d="m 109.77467,31.518539 c 0,0 -39.468553,-0.18669 -49.836804,20.972998 0,19.353375 0.23336,42.357125 0.23336,42.357125 0,0 17.544787,-16.867547 49.573594,-11.948397 -3.59904,-32.398165 0.0298,-51.381726 0.0298,-51.381726 z"
       id="path1258-2-0"
       sodipodi:nodetypes="ccccc" />
    <path
       style="fill:#ffffff;fill-opacity:1;stroke-width:1.05608"
       d="m 9.9031503,30.908204 c 0,0 39.6552407,0.37338 50.0234877,21.533068 0.423194,19.04372 0.18669,42.63716 0.18669,42.63716 0,0 -17.895049,-17.584272 -49.923861,-12.665122 C 13.788518,50.015143 9.9031503,30.908204 9.9031503,30.908204 Z"
       id="path1258-5"
       sodipodi:nodetypes="ccccc" />
    <path
       style="fill:#ff4406;fill-opacity:1;stroke-width:1.05608"
       d="m 17.40569,24.762196 c 0,0 32.374325,0 42.742571,21.159689 0.423194,19.04372 0,48.191192 0,48.191192 0,0 -9.867372,-23.698376 -41.896184,-18.779225 C 21.851129,42.935685 17.40569,24.762196 17.40569,24.762196 Z"
       id="path1258"
       sodipodi:nodetypes="ccccc" />
    <path
       style="fill:#ffffff;fill-opacity:1;stroke-width:1.05608"
       d="m 102.90207,24.812461 c 0,0 -32.37433,0 -42.742581,21.159689 0,19.353374 0.04666,48.004502 0.04666,48.004502 0,0 9.820704,-23.511686 41.849511,-18.592535 -3.59904,-32.398167 0.8464,-50.571656 0.8464,-50.571656 z"
       id="path1258-2"
       sodipodi:nodetypes="ccccc" />
  </g>
</svg>
